<mxfile host="Electron" modified="2023-09-16T12:18:50.694Z" agent="Mozilla/5.0 (Windows NT 10.0; Win64; x64) AppleWebKit/537.36 (KHTML, like Gecko) draw.io/21.6.8 Chrome/114.0.5735.289 Electron/25.5.0 Safari/537.36" etag="_827J9BAMyWPpp0KB-77" version="21.6.8" type="device">
  <diagram name="Page-1" id="0BDQKBIZZL_4rDw-r_er">
    <mxGraphModel dx="2268" dy="2016" grid="1" gridSize="10" guides="1" tooltips="1" connect="1" arrows="1" fold="1" page="1" pageScale="1" pageWidth="850" pageHeight="1100" math="0" shadow="0">
      <root>
        <mxCell id="0" />
        <mxCell id="1" parent="0" />
        <mxCell id="o5oyRe7uG-Ax35QUJMQp-46" value="" style="endArrow=classic;html=1;rounded=0;entryX=0.982;entryY=0.586;entryDx=0;entryDy=0;entryPerimeter=0;exitX=-0.007;exitY=0.52;exitDx=0;exitDy=0;dashed=1;exitPerimeter=0;" edge="1" parent="1" source="o5oyRe7uG-Ax35QUJMQp-7" target="o5oyRe7uG-Ax35QUJMQp-21">
          <mxGeometry width="50" height="50" relative="1" as="geometry">
            <mxPoint x="250" y="480" as="sourcePoint" />
            <mxPoint x="300" y="430" as="targetPoint" />
          </mxGeometry>
        </mxCell>
        <mxCell id="o5oyRe7uG-Ax35QUJMQp-47" value="Response" style="edgeLabel;html=1;align=center;verticalAlign=middle;resizable=0;points=[];" vertex="1" connectable="0" parent="o5oyRe7uG-Ax35QUJMQp-46">
          <mxGeometry x="-0.6336" y="-2" relative="1" as="geometry">
            <mxPoint x="-29" as="offset" />
          </mxGeometry>
        </mxCell>
        <mxCell id="o5oyRe7uG-Ax35QUJMQp-7" value="" style="rounded=0;whiteSpace=wrap;html=1;align=right;fontSize=18;labelPosition=left;verticalLabelPosition=top;verticalAlign=bottom;horizontal=1;dashed=1;dashPattern=8 8;fillStyle=auto;fillColor=none;" vertex="1" parent="1">
          <mxGeometry x="150" y="70" width="510" height="480" as="geometry" />
        </mxCell>
        <mxCell id="o5oyRe7uG-Ax35QUJMQp-1" value="UserAuthentication&lt;br&gt;Service" style="rounded=0;whiteSpace=wrap;html=1;fillColor=default;strokeColor=default;" vertex="1" parent="1">
          <mxGeometry x="210" y="210" width="140" height="60" as="geometry" />
        </mxCell>
        <mxCell id="o5oyRe7uG-Ax35QUJMQp-3" value="IDP" style="rounded=0;whiteSpace=wrap;html=1;fillColor=default;strokeColor=default;" vertex="1" parent="1">
          <mxGeometry x="440" y="-10" width="120" height="60" as="geometry" />
        </mxCell>
        <mxCell id="o5oyRe7uG-Ax35QUJMQp-4" value="" style="endArrow=classic;html=1;rounded=0;entryX=0;entryY=0.5;entryDx=0;entryDy=0;" edge="1" parent="1" target="o5oyRe7uG-Ax35QUJMQp-3">
          <mxGeometry width="50" height="50" relative="1" as="geometry">
            <mxPoint x="282" y="210" as="sourcePoint" />
            <mxPoint x="440" y="250" as="targetPoint" />
            <Array as="points">
              <mxPoint x="282" y="130" />
              <mxPoint x="280" y="20" />
            </Array>
          </mxGeometry>
        </mxCell>
        <mxCell id="o5oyRe7uG-Ax35QUJMQp-10" value="Login/Social Login/Register" style="edgeLabel;html=1;align=center;verticalAlign=middle;resizable=0;points=[];" vertex="1" connectable="0" parent="o5oyRe7uG-Ax35QUJMQp-4">
          <mxGeometry x="-0.1102" y="-6" relative="1" as="geometry">
            <mxPoint y="-26" as="offset" />
          </mxGeometry>
        </mxCell>
        <mxCell id="o5oyRe7uG-Ax35QUJMQp-9" value="" style="endArrow=classic;html=1;rounded=0;exitX=0.5;exitY=1;exitDx=0;exitDy=0;entryX=1;entryY=0.25;entryDx=0;entryDy=0;" edge="1" parent="1" source="o5oyRe7uG-Ax35QUJMQp-3" target="o5oyRe7uG-Ax35QUJMQp-1">
          <mxGeometry width="50" height="50" relative="1" as="geometry">
            <mxPoint x="460" y="290" as="sourcePoint" />
            <mxPoint x="510" y="240" as="targetPoint" />
            <Array as="points">
              <mxPoint x="500" y="225" />
            </Array>
          </mxGeometry>
        </mxCell>
        <mxCell id="o5oyRe7uG-Ax35QUJMQp-15" value="Sucess/Failure Callback" style="edgeLabel;html=1;align=center;verticalAlign=middle;resizable=0;points=[];" vertex="1" connectable="0" parent="o5oyRe7uG-Ax35QUJMQp-9">
          <mxGeometry x="0.0676" y="-3" relative="1" as="geometry">
            <mxPoint x="1" as="offset" />
          </mxGeometry>
        </mxCell>
        <mxCell id="o5oyRe7uG-Ax35QUJMQp-13" value="" style="endArrow=classic;html=1;rounded=0;exitX=1;exitY=0.75;exitDx=0;exitDy=0;entryX=0;entryY=0.5;entryDx=0;entryDy=0;" edge="1" parent="1" source="o5oyRe7uG-Ax35QUJMQp-1">
          <mxGeometry width="50" height="50" relative="1" as="geometry">
            <mxPoint x="460" y="290" as="sourcePoint" />
            <mxPoint x="710" y="255" as="targetPoint" />
          </mxGeometry>
        </mxCell>
        <mxCell id="o5oyRe7uG-Ax35QUJMQp-14" value="LoginEvent and RegistrationEvent" style="edgeLabel;html=1;align=center;verticalAlign=middle;resizable=0;points=[];" vertex="1" connectable="0" parent="o5oyRe7uG-Ax35QUJMQp-13">
          <mxGeometry x="0.247" y="2" relative="1" as="geometry">
            <mxPoint x="-1" as="offset" />
          </mxGeometry>
        </mxCell>
        <mxCell id="o5oyRe7uG-Ax35QUJMQp-18" value="UserProfileService" style="rounded=0;whiteSpace=wrap;html=1;fillColor=default;strokeColor=default;" vertex="1" parent="1">
          <mxGeometry x="210" y="350" width="150" height="60" as="geometry" />
        </mxCell>
        <mxCell id="o5oyRe7uG-Ax35QUJMQp-19" value="" style="sketch=0;outlineConnect=0;fontColor=#232F3E;gradientColor=none;fillColor=#232F3D;strokeColor=none;dashed=0;verticalLabelPosition=bottom;verticalAlign=top;align=center;html=1;fontSize=12;fontStyle=0;aspect=fixed;pointerEvents=1;shape=mxgraph.aws4.mobile_client;" vertex="1" parent="1">
          <mxGeometry x="-290" y="191" width="41" height="78" as="geometry" />
        </mxCell>
        <mxCell id="o5oyRe7uG-Ax35QUJMQp-20" value="" style="outlineConnect=0;dashed=0;verticalLabelPosition=bottom;verticalAlign=top;align=center;html=1;shape=mxgraph.aws3.management_console;fillColor=#D2D3D3;gradientColor=none;" vertex="1" parent="1">
          <mxGeometry x="-301" y="300" width="63" height="63" as="geometry" />
        </mxCell>
        <mxCell id="o5oyRe7uG-Ax35QUJMQp-21" value="" style="rounded=0;whiteSpace=wrap;html=1;align=right;fontSize=18;labelPosition=left;verticalLabelPosition=top;verticalAlign=bottom;horizontal=1;dashed=1;dashPattern=8 8;fillStyle=auto;fillColor=none;" vertex="1" parent="1">
          <mxGeometry x="-340" y="80" width="140" height="410" as="geometry" />
        </mxCell>
        <mxCell id="o5oyRe7uG-Ax35QUJMQp-22" value="Client" style="text;html=1;strokeColor=none;fillColor=none;align=center;verticalAlign=middle;whiteSpace=wrap;rounded=0;" vertex="1" parent="1">
          <mxGeometry x="-301" y="110" width="60" height="30" as="geometry" />
        </mxCell>
        <mxCell id="o5oyRe7uG-Ax35QUJMQp-24" value="" style="endArrow=classic;html=1;rounded=0;entryX=0.01;entryY=0.45;entryDx=0;entryDy=0;entryPerimeter=0;exitX=1;exitY=0.5;exitDx=0;exitDy=0;" edge="1" parent="1" source="o5oyRe7uG-Ax35QUJMQp-21" target="o5oyRe7uG-Ax35QUJMQp-7">
          <mxGeometry width="50" height="50" relative="1" as="geometry">
            <mxPoint x="340" y="350" as="sourcePoint" />
            <mxPoint x="390" y="300" as="targetPoint" />
          </mxGeometry>
        </mxCell>
        <mxCell id="o5oyRe7uG-Ax35QUJMQp-30" value="HTTPS" style="edgeLabel;html=1;align=center;verticalAlign=middle;resizable=0;points=[];" vertex="1" connectable="0" parent="o5oyRe7uG-Ax35QUJMQp-24">
          <mxGeometry x="0.7577" y="3" relative="1" as="geometry">
            <mxPoint x="-51" y="-2" as="offset" />
          </mxGeometry>
        </mxCell>
        <mxCell id="o5oyRe7uG-Ax35QUJMQp-26" value="CDN" style="rounded=0;whiteSpace=wrap;html=1;fillColor=default;strokeColor=default;" vertex="1" parent="1">
          <mxGeometry x="-160" y="80" width="60" height="410" as="geometry" />
        </mxCell>
        <mxCell id="o5oyRe7uG-Ax35QUJMQp-31" value="" style="endArrow=classic;html=1;rounded=0;exitX=0.5;exitY=1;exitDx=0;exitDy=0;entryX=0.5;entryY=0;entryDx=0;entryDy=0;entryPerimeter=0;" edge="1" parent="1" source="o5oyRe7uG-Ax35QUJMQp-1">
          <mxGeometry width="50" height="50" relative="1" as="geometry">
            <mxPoint x="400" y="360" as="sourcePoint" />
            <mxPoint x="550" y="340" as="targetPoint" />
            <Array as="points">
              <mxPoint x="280" y="320" />
              <mxPoint x="550" y="320" />
            </Array>
          </mxGeometry>
        </mxCell>
        <mxCell id="o5oyRe7uG-Ax35QUJMQp-32" value="" style="endArrow=classic;html=1;rounded=0;exitX=1;exitY=0.5;exitDx=0;exitDy=0;entryX=0;entryY=0.5;entryDx=0;entryDy=0;entryPerimeter=0;" edge="1" parent="1" source="o5oyRe7uG-Ax35QUJMQp-18">
          <mxGeometry width="50" height="50" relative="1" as="geometry">
            <mxPoint x="400" y="360" as="sourcePoint" />
            <mxPoint x="510" y="380" as="targetPoint" />
          </mxGeometry>
        </mxCell>
        <mxCell id="o5oyRe7uG-Ax35QUJMQp-52" value="Customer Profile&lt;br&gt;Data" style="edgeLabel;html=1;align=center;verticalAlign=middle;resizable=0;points=[];" vertex="1" connectable="0" parent="o5oyRe7uG-Ax35QUJMQp-32">
          <mxGeometry x="-0.3045" y="-3" relative="1" as="geometry">
            <mxPoint x="-1" as="offset" />
          </mxGeometry>
        </mxCell>
        <mxCell id="o5oyRe7uG-Ax35QUJMQp-33" value="UserConsent&lt;br&gt;Management&lt;br&gt;Service" style="rounded=0;whiteSpace=wrap;html=1;fillColor=default;strokeColor=default;" vertex="1" parent="1">
          <mxGeometry x="210" y="470" width="150" height="60" as="geometry" />
        </mxCell>
        <mxCell id="o5oyRe7uG-Ax35QUJMQp-34" value="" style="endArrow=classic;html=1;rounded=0;exitX=1;exitY=0.5;exitDx=0;exitDy=0;entryX=0.5;entryY=1;entryDx=0;entryDy=0;entryPerimeter=0;" edge="1" parent="1" source="o5oyRe7uG-Ax35QUJMQp-33">
          <mxGeometry width="50" height="50" relative="1" as="geometry">
            <mxPoint x="370" y="270" as="sourcePoint" />
            <mxPoint x="550" y="420" as="targetPoint" />
            <Array as="points">
              <mxPoint x="550" y="500" />
            </Array>
          </mxGeometry>
        </mxCell>
        <mxCell id="o5oyRe7uG-Ax35QUJMQp-50" value="Save Customer &lt;br&gt;Preferences" style="edgeLabel;html=1;align=center;verticalAlign=middle;resizable=0;points=[];" vertex="1" connectable="0" parent="o5oyRe7uG-Ax35QUJMQp-34">
          <mxGeometry x="-0.2916" y="4" relative="1" as="geometry">
            <mxPoint x="-1" as="offset" />
          </mxGeometry>
        </mxCell>
        <mxCell id="o5oyRe7uG-Ax35QUJMQp-37" value="ThirdPartyAndEmail&lt;br&gt;IntegrationMicroservice" style="rounded=0;whiteSpace=wrap;html=1;fillColor=default;strokeColor=default;" vertex="1" parent="1">
          <mxGeometry x="210" y="610" width="150" height="60" as="geometry" />
        </mxCell>
        <mxCell id="o5oyRe7uG-Ax35QUJMQp-41" value="" style="endArrow=classic;html=1;rounded=0;exitX=0.5;exitY=0;exitDx=0;exitDy=0;" edge="1" parent="1" source="o5oyRe7uG-Ax35QUJMQp-37" target="o5oyRe7uG-Ax35QUJMQp-33">
          <mxGeometry width="50" height="50" relative="1" as="geometry">
            <mxPoint x="220" y="610" as="sourcePoint" />
            <mxPoint x="284.65959328028293" y="676.9999999999995" as="targetPoint" />
          </mxGeometry>
        </mxCell>
        <mxCell id="o5oyRe7uG-Ax35QUJMQp-49" value="Fetch the whitelisted emails&amp;nbsp;&lt;br&gt;allowed by user." style="edgeLabel;html=1;align=center;verticalAlign=middle;resizable=0;points=[];" vertex="1" connectable="0" parent="o5oyRe7uG-Ax35QUJMQp-41">
          <mxGeometry x="-0.0161" y="2" relative="1" as="geometry">
            <mxPoint as="offset" />
          </mxGeometry>
        </mxCell>
        <mxCell id="o5oyRe7uG-Ax35QUJMQp-44" value="" style="endArrow=classic;html=1;rounded=0;entryX=0.5;entryY=0;entryDx=0;entryDy=0;exitX=0.5;exitY=1;exitDx=0;exitDy=0;" edge="1" parent="1" source="o5oyRe7uG-Ax35QUJMQp-18" target="o5oyRe7uG-Ax35QUJMQp-33">
          <mxGeometry width="50" height="50" relative="1" as="geometry">
            <mxPoint x="250" y="460" as="sourcePoint" />
            <mxPoint x="300" y="410" as="targetPoint" />
          </mxGeometry>
        </mxCell>
        <mxCell id="o5oyRe7uG-Ax35QUJMQp-51" value="Customer Preferences" style="edgeLabel;html=1;align=center;verticalAlign=middle;resizable=0;points=[];" vertex="1" connectable="0" parent="o5oyRe7uG-Ax35QUJMQp-44">
          <mxGeometry x="-0.1899" y="2" relative="1" as="geometry">
            <mxPoint y="1" as="offset" />
          </mxGeometry>
        </mxCell>
        <mxCell id="o5oyRe7uG-Ax35QUJMQp-54" value="API Gateway" style="rounded=0;whiteSpace=wrap;html=1;fillColor=default;strokeColor=default;" vertex="1" parent="1">
          <mxGeometry x="-30" y="80" width="60" height="410" as="geometry" />
        </mxCell>
        <mxCell id="o5oyRe7uG-Ax35QUJMQp-55" value="UserManagementService" style="text;html=1;strokeColor=none;fillColor=none;align=center;verticalAlign=middle;whiteSpace=wrap;rounded=0;" vertex="1" parent="1">
          <mxGeometry x="200" y="90" width="60" height="30" as="geometry" />
        </mxCell>
        <mxCell id="o5oyRe7uG-Ax35QUJMQp-56" value="RegistrationEvent" style="edgeLabel;html=1;align=center;verticalAlign=middle;resizable=0;points=[];" vertex="1" connectable="0" parent="1">
          <mxGeometry x="850" y="225" as="geometry" />
        </mxCell>
        <mxCell id="o5oyRe7uG-Ax35QUJMQp-57" value="" style="rounded=0;whiteSpace=wrap;html=1;fillColor=#FFFFFF;strokeColor=default;" vertex="1" parent="1">
          <mxGeometry x="711" y="90" width="80" height="320" as="geometry" />
        </mxCell>
        <mxCell id="o5oyRe7uG-Ax35QUJMQp-58" value="" style="image;aspect=fixed;html=1;points=[];align=center;fontSize=12;image=img/lib/azure2/integration/Event_Grid_Subscriptions.svg;" vertex="1" parent="1">
          <mxGeometry x="723.08" y="265" width="55.83" height="50" as="geometry" />
        </mxCell>
        <mxCell id="o5oyRe7uG-Ax35QUJMQp-59" value="Event Streaming Cloud Service" style="text;html=1;strokeColor=none;fillColor=none;align=center;verticalAlign=middle;whiteSpace=wrap;rounded=0;" vertex="1" parent="1">
          <mxGeometry x="718.92" y="140" width="60" height="30" as="geometry" />
        </mxCell>
        <mxCell id="o5oyRe7uG-Ax35QUJMQp-60" value="" style="sketch=0;outlineConnect=0;fontColor=#232F3E;gradientColor=none;fillColor=#B0084D;strokeColor=none;dashed=0;verticalLabelPosition=bottom;verticalAlign=top;align=center;html=1;fontSize=12;fontStyle=0;aspect=fixed;pointerEvents=1;shape=mxgraph.aws4.shield_shield_advanced;" vertex="1" parent="1">
          <mxGeometry x="-147.82" y="106.72" width="32.82" height="36.57" as="geometry" />
        </mxCell>
        <mxCell id="o5oyRe7uG-Ax35QUJMQp-61" value="" style="outlineConnect=0;dashed=0;verticalLabelPosition=bottom;verticalAlign=top;align=center;html=1;shape=mxgraph.aws3.cache_node;fillColor=#2E73B8;gradientColor=none;" vertex="1" parent="1">
          <mxGeometry x="-150" y="176.72000000000003" width="40" height="40.01" as="geometry" />
        </mxCell>
        <mxCell id="o5oyRe7uG-Ax35QUJMQp-62" value="Security" style="text;html=1;strokeColor=none;fillColor=none;align=center;verticalAlign=middle;whiteSpace=wrap;rounded=0;" vertex="1" parent="1">
          <mxGeometry x="-160" y="80" width="60" height="30" as="geometry" />
        </mxCell>
        <mxCell id="o5oyRe7uG-Ax35QUJMQp-63" value="Caching" style="text;html=1;strokeColor=none;fillColor=none;align=center;verticalAlign=middle;whiteSpace=wrap;rounded=0;" vertex="1" parent="1">
          <mxGeometry x="-160" y="150" width="60" height="30" as="geometry" />
        </mxCell>
        <mxCell id="o5oyRe7uG-Ax35QUJMQp-64" value="Security" style="html=1;whiteSpace=wrap;strokeColor=none;fillColor=#0079D6;labelPosition=center;verticalLabelPosition=middle;verticalAlign=top;align=center;fontSize=12;outlineConnect=0;spacingTop=-6;fontColor=#FFFFFF;sketch=0;shape=mxgraph.sitemap.security;" vertex="1" parent="1">
          <mxGeometry x="-25" y="106.72" width="50" height="30" as="geometry" />
        </mxCell>
        <mxCell id="o5oyRe7uG-Ax35QUJMQp-65" value="" style="shape=image;verticalLabelPosition=bottom;labelBackgroundColor=default;verticalAlign=top;aspect=fixed;imageAspect=0;image=data:image/png,iVBORw0KGgoAAAANSUhEUgAAAQMAAADCCAMAAAB6zFdcAAAA9lBMVEX///8AK1D///0AK0////sAGzr8///x+voAKVD///oAK1MALFMBKlD1//8AK00ALFEAFD+Wp7AaOVUJLEiEkp0AH0AAHUkAF0AAACwAJ0+cqa/T4eIAK1a9ztXp9PQAADRrfokACjwAAC4AI0sADTYAIUoACkAAAC0ACjgAIjwAJ0YAEj8AI0cAHEG8y9IAACU3T2E8UVwAAAAAGEUAHTtic4SotrwAFTlEW2+ktMB3iZTc6e0AACMhOU0AFkhUZ3wwRV0vRlZcbHZDWnK4wMVrgZJHXXUyTGaNorR/kJtSY3CFi5UTKUEMMlCRm6Ftd4HG2uN2hZdtB+F1AAAVlklEQVR4nO1djV/ayNZOMjEkM5NEFA2RISqELSKh9CoiZrlre+3d6m1d9v//Z95zJuFDiW13AYP75ml/rfKRzDxz5nzMnDNRlAIFChQoUKBAgQIFChQoUKBAgQIFChQoUKBAgQIFChQoUOANQMu7ATnA0qHf0HHD0DTNwFeMoFa/uzo6KpfLV716bMNLuo4fQXp0+KCRb4vXj6RjQIMO/9qTo8/9y7DRPt+9uPg34JewUd357WZUsxUNidAs/R/IAUKzLOh/rfxQDb0u54w5jkOIg2CU8WarfXw5uIoNRbd0y9L+kdPFMOzJ/bjhNamg0HnGCacpiISq8qb3rl+OFQPFIe/2rhsadCn4chtGxGQsGXspBYxJDrgKAgGSoRKXOMPh9V1J+UdxADoQJrgS/7njmSrn2F0ccgCZQf6qgmSoqqu6vNvYKweSOPiq5O+NA+a3rkwGjRbj6k+C+7739TEwYEKACv0niISmxCdeS1D3ZykAEhhVd7+WbcV6+91X0BqUytEhqD/ukJ+lABQGKsjhx579z7CQk/45aEFCTfLTHKCmABao3zgJ0KnKuwt/E0aqzexKu+uqDgGl/9PqAERA6kvmM++sZyTq4A0qBcMAT0c34n77L3Q9gwxSvTEUFIW3KA3g6ulG77IpVqEANAM/78dwsTc5I3TLMMpVU6zKgRDNs4nxNn1nzbBv2iYF3281Dpig3eGd8bYomDbW/hSCE0yclThAbWoyXr1Kr/1GmNAUtOmG/WlIV+v+HMTZKUvFiJH3WwAug2haaeARc10cMO68L78lxYimzLD/2BV/xSH4PjiScGW8FSmQQmAYN0Ofro8D5oLzPKzbb0YOsKHld5z+Bdf4hxxIX/uylujbZw7TlvLSC9fX/xmoPy5Jl1GuOEoiUOK2cuHR0uJLvjaTMAen0adEJRh2KSjZsu8QRWwlB/Z1U2yAA0JpeGTXyyf9s+r7arU6vB1UeoGMS/Lu8jLKITM3MBccRkkUtr2Ic4Ew/VbrtNF/jJWtEgS5QxK/d0CNr58D1yWuEJQyQkyECg4k2J6o8Z87Y4s2rnTDsOzfm4SvzSr+BHjzdHxlaPqWGE4NFGK57Tj8VUlQSTfsT4xtWWXRrOCAQ5jzyhxQ4Q8rpS3xIzXlxoP5+soccEapOuzHdmkLJMHQ4h1OXp0DyjtyqaW3DQZCtz//m27AJPwQQDv1zQaEVbnToMdDf7V1oxVoMBnGlkbumvHGI25OJBAC0WW1Z1hWvqIQOMLJjwPCmD+cKDlPh9G5cJy/sK24TnAV/BJq7oGJzKv7GnhqynWX/aXtpA0QEQ0Ma5rV9Poc6FocOmzFtfSVSeBViB5y4gCDhceI5E2BoJ1xILc6c+HAsvtduVmaJweUkmHF0HKKnzStNiR5c4CZXs5lkCQ6vj4FljLyVMw2ypECHADuevdgGvLgQLeUQTdPkzAH3w/ASuXCgT1Wt4SD9lU+awlgGas5eUfPwVuDnDhQemGu7tEcLhkGWh4Os65Uonx9gzlI2MuHA2PQotshByqL7vPRiXa/uYGNlb8F1r22c6BA0ewDwXP1Deag/CyXlUUtOBb5+kdzMFqNc+EgPha5uskLYKIxyYWDentbxEDlrN3LgwK9t1Uc3OXBgdLbLTi42yYOdl+fA1RAd9s0F3Z7r5anlKQDYSYIzIXhtlCgEjMa9Eoyd0t/nfo4zbIMu3azLZGzzHWn3fBg0LMtoGDjK+0yR0w3etftC7qJHKS/BeIQxhzSOr4dlTa/96bpWJTb6x+3BGV0W0ImNSmeJab/y3hUsl9BL8QPx77JKFZhbZEgcIFri9QP+/XNdV1TDJgFlj06uzRVd6FQcxuARXHyX5W2wvuSomwmdU1mpyvBp/DnK/ZyAGGCDz/GG8vSwfrdccRXLNbZLBxVCLN50NvM+iJYBHty1mVia8xBFkAlUGCherWRWlGYCPWqb1LqLuXecL/p52AiuOn7z+9rqjBVQUEej9bMgZ74RZOhKvizjSWTsm64//t/f9+PwFQyinUcTIKC8eRY4jVvJUwjU8X8LT47BwELoAgxORb7wk94BUxNhcuAvXOZoJkwYSgYj8bX17fRxZOyiaRWlAsKJOjrzO7WcEdFi88yUk6YGf42scF9tr94JufQQdN0JdBiY2sXB05i9q4jjYtpmvgqcVQzKXpWTaQFfnb24YbMeQo5AMhjZxzDfe14NO4+n5wcJaSN9bLrFAbN0kpwr6Vp4KrhF7npq2lxCC4rwbFm2MlUGJ5KDTQO3p6D4h+fmlylpuQChrDpw4QjcjMX3L8nH5/BBRoOTrAGUgc9fesvcwDXO5usM4rCgzrsQcTEUs0WOxhgS2S+auQ40DrSOpyh1WqKRRXKhH94cXH4FE2YFyahSITvtaO9vb1v7TDyYRJRwQ+zETWpaN0kul8zJmdLHIA00ubtOtdZDc0yRiHO1eck0LAGQyERhzD+6uX1fWWK+5s/PuwfHy6MEu/cVJ5j0MEKee7TVrtfnsSBbQdxrzL2QDb4/v3Sx9MrO6x5okB8BOGBbv/RWuIAWfBO1jgVMOvmjFDusuczT/RhHKAtRin44oGQdh+mt00rbkqT/30FbZnMCD6cLF88GBIQe+bvXuObmpUEv/bduMt27l9s0eeuehsHJQU/btydc7LUNBCvsCezdNbiLhm68XCQ6R0eniRlbfdnZzugqKhXVix5HIouy5CktxZ8bptMftvcs/WEHfmejssQemnMsbg1rNia5A0PVMLYL+5Qb4SZX7NSJjm75f+6Uh7y7vDy6wRdeCMGDugSB77wxwHoC8VaBwe60quqmXuLF0fyCJi4CgJvgjHblRzo8rQjzUhPczBGVcJSDqwnHKAs22OwJphPg6ZMvq7hKVu63ffPR9Mx1NL6Ni353dKvdmFqmq0BbrEZpW8qEc/bBzqWDct4XtdatAK0p5udlA2t1MBm3LXRHyCETjnQjdnAYbnuY+jO5ECbV7TLQ8RK+6D/u9egWvH0AKlf8QKW0ufDK8WypLgkE0tLhAuPWSh7FLwAfyw7aNx2XfG8feBhUPUssNYiBXDv3ukLxYvtHki9pYzOGVh1xxSSA2hXaVaAh+9b9h5f4AAHf37xyakg/N0ExR9nwOj+vjyBryMH3ZtZ/JccCzG9qmEMWoI4pn+WDPIHcOGft4+Sjkt3K8rqZwjIYTGu/Zc4qONZZ0r53wIdtCkHivL4r0aj2vntDsdUQauyO+MAOhD82ukiOvifJwTvXidl40a5cd5seY1vlUABDsyDkxR/lORBWqXp74MDmP8OFx1jygF93j4GXhdTo0BbOZUXVYpWq6ovcHBax5FWyrvJbGTJXFCUIw/NU/N4YOuydr12im/7Ug4MLagKk6dA+XEPHuXNjElV1kly09sp9zrw/9QhCPGLul46mHoe+FVmik7Syg8wRpmTVWbprMqBjn/vI7E03WYcaNkcyN/dBkgCcmCf8iccLKzCgZfMwjuUA82oeOl9GPXOIQ6YwjxIOdj3+Rzujzlwux+UlR1mmIB6aY8Kmr3N/gMOaHOQcrBnvsSBixzI9S9NqRymW9kkcYinmHOQfDGRoJ+QA+I04pX1gQ6iNDnGU9/+Dgdqsw/fBx1vf/s+B72Eg0nVTLxKkpyXlMGBu8AB/zEH7u5oZdsITgxIKCHOEgc84UBawPJF4gSxqU48wiASetJ8AI2CysxbmAs6cDA9Pg5GHOKkMD35A3SikOuCMgCedypTDlAfHMw5yBoiaFHz08ocgNYHq5B1dRkLtSc6+iCPF3SBA9DVRxdCmOAveEdyb8qaHM850PTgvSuHU0aOoBBIdC+XbEF/3t22CWHgbjkqnXs9/BkHCTEmpe+Tuf7QFNnFxlzwS3tVXxlabA8z9SG0gPpngY7uwOfDRQ50aSwF6LSDcYBes6WVpW30p7bxX7unKS4wliDqNxv9awz47dHtLy2MjxeD7kwOwL1k7+0ZB5ligEFDbXUOtNpx5uUJFSx6wLoyy/69tagPkINjz/PCxgMu8ELUaY/pAgdaqTdD+VKuGoQjW56diI6yUX941wUtvGCNMzlQQVaqsfSa7qMXas7BlwyvVraNIJ7nmYuoDqWdX2sKdjFu+3xBDkBJ9iqPj49X2ECMoJT7XTHnQJ4QmcY/itFvyjj3MpDH66DHZen25KFhip/gAJSp5CC+jDqZFYZEFV5lRQqQg6OLTA5c/3hcN+Tsvzn01UWdqKUubhIxgYZsi7kcaBgcTeNAy/jUMjlMK/LRxpvhN5EZu9dpqT/ggDsOBZ2L97Emn4deJgdEtE5W5QAafH+YGTL6/Xh6ZOavJD0qMZWDpOvJeFta8PmUJ3Hj1DYqs1BYA8c/uVw0jpOzPmRUADrjY9MlWLX1shwg2iOs7cMbliPC1SVhwHBsDRycHGbqxNZ9clSJ3bt0aFrrm9qFdHtahhpBZd8ToMJnHMhAcroDoin9ruwkM7vDSoCa0ZKnfcAXb8E0pJ7ZyxyQ4ZcAF0osPWhnc8A/roODViYHnozNldpD1XFdsigHBi5D4zoAxtClUeQLDGPnHGil+hSTUSdR6KBh6e5+OZA72/IcRmPyngj6Iw6Y6Z09yti09BIH43VwkC0HoGtwNI3atWeCK70oB7oeT2pxCZQFVnpMhjBT5nMBZknwr9M2Ijw9HSaHyeDOgus2d89uYnkWJdpk4+SApq7zdzjgw3IJ5eAlDlx1gxxIdQTWzLBPQpoaslQfWEb519PjMValo+NztMu4OeMABnrqKzMhnP10pLFi0xfiMDyJpS6FC9d/NX/IAa6zyD1xox5uigPAiZ/pf5CDwVVJbmMYH30/OS1vZheOPLnph2/D7P/QSmrjUw7QV2bEBV8RXQPcSsBdFQdP02Ambx3cpYWrduSnNbTZdgGiARadJOcRx5+/ZcYLhPm3a1hdvmll2gXGmuF1SR4K3WubT+RArh8wSsCLlBFTve2SOQfPY2cTjKM6z2dwyft6mojvCsd92S4gBySMS5gcVNvxMp0k4lB/dbugKI9eZskOntfzS0X6iaU9333OAQQL1KsYFm4AGH3nOxzghhyfR4lTow/49l0O0Jp0B/L5BXbfZ9k+ksNbn9bAwVWYLWUwgP5eCdeJjE9NtsSBw6m/H8jVVbjEE//gGQfJTJi6hR0qxqkcON/lAGMrXHWFz9Z3hZmptKAVq/uJGNQfZ88FPDKzEcsthMqTmClZP8BoG37FzQLLPpvvLzznABeSOq3dbioJZN+dbtTY0Xc5cMB0VicyMn6MGM9c6SKOeT5anQOtVOUMtNXzW8iz80/rerJ+kLjTi/oAJ3izL5WmrlQ8ClFNqhNxPZHMN5KF6RzY8UPVlyX0JuPv74zk7KkwnWIvyYFJq0ncOGiS7APbIF6A8H5lEnTjYzfr8hKzdaQlDuTvbmOioUawoDsgKa2EA/APjn+RwOj5nFJwZzHlcXjaarUOvXcVQ3pJRjkyU+aBA1yKec4BF42kjQ9Nl2cKK2FiuIadV924if42B03cHAYOICwwVZ7IAfiJvUlthqtIbQ6kdxlf3Xy6HjzGmGYJFJS+ykyN73IQJm388CIHbvN69XUkWccIc/UH64nZHKh+J0D/BeKqd45LUg6U2b6hDJJuTeDgyT0l7Psh2Ezz+xzM1hNJNgeueVFekQFcU9X00sHTFc6f58AR7SsIf0DF2R86xOXJWpqMpWZQrpvid5k1k/R9uh1w1Wao1s2VOFAZaO3V15WhzSddTBD5HgfniV2gFzM/UX7cYX4/dfqOhpzjnqs+jSinUB669F1tekampiVsKFcQScgEHclBJ8nGLu0vbq2COp1x4JIMncjBPI/XVPjYazBiZupd5AD+lM8T/4Dvlg250Vu+SIbKcdt12T1Q8mDBo2Da/+ml4aePXeqcQeCjy/1V5AhUw6fQXBzySxvzbpTS14VcedNxZhw03cy8YU4vHtfCAAjybdf0v8vBbspB97oeB3Fc7yc5c8BB87+TOICXvkQgvN2H2hKudpjg3Nur1Evp7YLeyWXEFtPiefSlFsdx7fFswRsEDszLlAM/jcqegfAwNtaz926UQ56do35+J5e/7tqpjySa7eHBQRg6iVEDn0C0QnglGg5dfDBRt33cPn6KkMhnFalRu/NhcF+5H3zsnLeSpLXZbRj1wugganuLW+zAAf2aNLDvu0v7YLhPQTCkWlP+QbDfzV67vhjJ4pF6w5w2VnBQVSLZP1AFeP8QEUnAdBIcomVXzJAmKGJqoqPiUfNNcBCa4CtR5+meDqMuxWRHIZ5y0EziIWPM+dKDT2RM2qjpa+LAskehk5mp7j1KW2cPvUOCOYYdghl1Jk29d6HKzEvcNKJMpQLeYosXSY4IdfYdU4ZN8ileLHmUEdC1oP5w10lGKPOh4LTZrSaGr9QBffs8ZsJtruFnRV/TiTmWbn/sqBn7bWrzU2L6apX7W/aqJR3EbH6+GcmsZKN2TAVbahtErjvBOrovoUs/KatgQewHuD0PtsCYeOZSXtQGQVr/xXVLaUYgZFqeqjB1zlf3j2ZAZ/dzxDMOiqThFa4aYhZWvLPqIzj+EtzDPzFBRIOmBbddviwG3G9e22tKRkJoeKMOTsmlG32LDZlTp8XRqxZ5AQe4QGMk++JZhzTxy9VdxAUKMHKKd0B7Lyke0RrXkg9NTl/Y+90M3NZveFdDsStDihwsyigwYpJwpK39ZMW7tpBRwxOPEfye8z+OepPeqP9S3tamcPDnVb1+V9k7X6IetbdoV9b/SBfNKL9zZZL5AuMMTBrveuft9rBLX5kD3tptn59Hvlgyi0SlbPjZ3si5io/HFHzmRdoZ5pubmC7An+6WvwIgngeXA/ympRoazDr4w9hEXReu7Lwnvr/IgTkTC3zwnrq257H8DGS6jiyAeJ4nQ/m7kySXYc2TQUZ7V42uuchBMvI8KaFx1FeteAMHAP1y8Cufy4FoVGzc7FS0jVT4Tb52iU/cjCWVnKoe5/2nJjQKy3+67+82+ShQTQse2jTDad4CEBlbuc6wH2/0CblwbWPUQa94+4ocCYaVrDss2/J8ho1xgOvkSvDnDlikvLu8BDyMvzscxIZ8gODmjk/D/DlwUOObHS8zaTFPOObh8FNNpn9s9Lk1SToZaNvg6LYddZks48tJOSSJrnKvSgiTHrb37uNpEzcPufhrTyrX3uluywePIT9Q8A781sVpePu/eunVz1S1dMUO6kcnDx/3Li938kIUfbu9HpR78qHxr/3MoqRiC29ql4KglBuCUloXJLcmXu8gSSOtu5rlGWr5IXmOmRwVTOl7NQ6UtPPpT/k/PCzdqNueZzYVKFCgQIECBQoUKFCgQIECBQoUKFCgQIECBQoUKFCgQIECBQr8v8P/AZcMF7fO8/LtAAAAAElFTkSuQmCC;" vertex="1" parent="1">
          <mxGeometry x="-25" y="176.72000000000003" width="51.04" height="38.23" as="geometry" />
        </mxCell>
        <mxCell id="o5oyRe7uG-Ax35QUJMQp-66" value="" style="image;aspect=fixed;perimeter=ellipsePerimeter;html=1;align=center;shadow=0;dashed=0;spacingTop=3;image=img/lib/active_directory/databases.svg;" vertex="1" parent="1">
          <mxGeometry x="509.18" y="340" width="81.64" height="80" as="geometry" />
        </mxCell>
        <mxCell id="o5oyRe7uG-Ax35QUJMQp-67" value="&#xa;&lt;span style=&quot;color: rgb(51, 51, 51); font-family: Helvetica; font-size: 12px; font-style: normal; font-variant-ligatures: normal; font-variant-caps: normal; font-weight: 400; letter-spacing: normal; orphans: 2; text-align: center; text-indent: 0px; text-transform: none; widows: 2; word-spacing: 0px; -webkit-text-stroke-width: 0px; background-color: rgb(251, 251, 251); text-decoration-thickness: initial; text-decoration-style: initial; text-decoration-color: initial; float: none; display: inline !important;&quot;&gt;Relational&lt;/span&gt;&lt;br style=&quot;border-color: var(--border-color); color: rgb(51, 51, 51); font-family: Helvetica; font-size: 12px; font-style: normal; font-variant-ligatures: normal; font-variant-caps: normal; font-weight: 400; letter-spacing: normal; orphans: 2; text-align: center; text-indent: 0px; text-transform: none; widows: 2; word-spacing: 0px; -webkit-text-stroke-width: 0px; background-color: rgb(251, 251, 251); text-decoration-thickness: initial; text-decoration-style: initial; text-decoration-color: initial;&quot;&gt;&lt;span style=&quot;color: rgb(51, 51, 51); font-family: Helvetica; font-size: 12px; font-style: normal; font-variant-ligatures: normal; font-variant-caps: normal; font-weight: 400; letter-spacing: normal; orphans: 2; text-align: center; text-indent: 0px; text-transform: none; widows: 2; word-spacing: 0px; -webkit-text-stroke-width: 0px; background-color: rgb(251, 251, 251); text-decoration-thickness: initial; text-decoration-style: initial; text-decoration-color: initial; float: none; display: inline !important;&quot;&gt;DB&lt;/span&gt;&lt;br style=&quot;border-color: var(--border-color); color: rgb(51, 51, 51); font-family: Helvetica; font-size: 12px; font-style: normal; font-variant-ligatures: normal; font-variant-caps: normal; font-weight: 400; letter-spacing: normal; orphans: 2; text-align: center; text-indent: 0px; text-transform: none; widows: 2; word-spacing: 0px; -webkit-text-stroke-width: 0px; background-color: rgb(251, 251, 251); text-decoration-thickness: initial; text-decoration-style: initial; text-decoration-color: initial;&quot;&gt;&lt;span style=&quot;color: rgb(51, 51, 51); font-family: Helvetica; font-size: 12px; font-style: normal; font-variant-ligatures: normal; font-variant-caps: normal; font-weight: 400; letter-spacing: normal; orphans: 2; text-align: center; text-indent: 0px; text-transform: none; widows: 2; word-spacing: 0px; -webkit-text-stroke-width: 0px; background-color: rgb(251, 251, 251); text-decoration-thickness: initial; text-decoration-style: initial; text-decoration-color: initial; float: none; display: inline !important;&quot;&gt;Service on Cloud&lt;/span&gt;&#xa;&#xa;" style="text;html=1;strokeColor=none;fillColor=none;align=center;verticalAlign=middle;whiteSpace=wrap;rounded=0;" vertex="1" parent="1">
          <mxGeometry x="560" y="430" width="100" height="30" as="geometry" />
        </mxCell>
      </root>
    </mxGraphModel>
  </diagram>
</mxfile>
